<?xml version="1.0" encoding="UTF-8"?>
<svg version="1.1" xmlns="http://www.w3.org/2000/svg" width="371" height="284">
<path d="M0 0 C17.82 0 35.64 0 54 0 C54.33 12.54 54.66 25.08 55 38 C58.63 36.68 62.26 35.36 66 34 C92.07451077 28.46112597 118.74979681 32.60339074 141.23291016 46.81054688 C145.60489478 49.75339146 149.34391232 53.22512246 153 57 C153.69351562 57.69609375 154.38703125 58.3921875 155.1015625 59.109375 C175.777991 80.98328005 178.65179755 108.30971772 178.390625 136.91796875 C178.38314505 139.35703564 178.37746044 141.79610862 178.37347412 144.23518372 C178.35835587 150.58911351 178.31919617 156.94266519 178.2746582 163.29644775 C178.23340423 169.8063038 178.21539936 176.3162222 178.1953125 182.82617188 C178.15268607 195.55094059 178.08539844 208.27544998 178 221 C174.22923455 221.05899621 170.45859074 221.09392568 166.6875 221.125 C165.63498047 221.14175781 164.58246094 221.15851563 163.49804688 221.17578125 C152.01794039 221.24642806 142.06892117 220.42927401 133.31640625 212.46875 C122.74158357 201.28739135 122.6863148 185.0024474 122.875 170.5390625 C122.88384691 169.17728386 122.89147028 167.8154968 122.89794922 166.45370483 C122.92434084 161.45774153 122.9727277 156.4620413 123.02075195 151.46624756 C123.06065521 147.22700731 123.09174488 142.98786716 123.11187744 138.74848557 C123.12456568 136.79348311 123.14970879 134.83857374 123.17529297 132.88369751 C123.25873528 117.45539178 122.15297028 100.73996872 111 89 C103.58593415 82.3034244 95.5254962 81.59057657 85.79296875 81.75390625 C75.45030846 82.42495424 67.88956434 85.59767236 60.9140625 93.3046875 C58.81746263 96.25704242 57.83764973 98.78541234 56.8125 102.25 C56.48894531 103.30703125 56.16539062 104.3640625 55.83203125 105.453125 C53.96246599 113.42291493 53.81987172 121.47229596 53.5625 129.625 C52.52295267 156.53863489 47.47263801 179.29675372 27.25 198.62890625 C4.40649493 218.52584218 -21.5350055 221.55187532 -51 220 C-63.99912847 218.54038551 -76.59200682 213.91912525 -87 206 C-87.66 206 -88.32 206 -89 206 C-90.27236966 207.52470414 -90.27236966 207.52470414 -91.5625 209.5 C-98.89621574 219.48445637 -107.79481289 225.63841211 -120.11328125 227.78125 C-126.29995803 228.69721971 -131.81714526 229.13851686 -138 228 C-138.04658507 216.78530364 -138.08200108 205.57063075 -138.10362434 194.3558569 C-138.11400863 189.14695221 -138.1280686 183.93811431 -138.15087891 178.72924805 C-138.17280003 173.69121721 -138.18460876 168.65325014 -138.18975449 163.61517525 C-138.19341598 161.70450399 -138.20056459 159.79383576 -138.21146011 157.88319206 C-138.34996378 132.56053501 -135.42216562 108.30487327 -117.05859375 89.07421875 C-116.03958984 88.04748047 -116.03958984 88.04748047 -115 87 C-114.154375 86.113125 -113.30875 85.22625 -112.4375 84.3125 C-111.633125 83.549375 -110.82875 82.78625 -110 82 C-109.48824219 81.49339844 -108.97648437 80.98679687 -108.44921875 80.46484375 C-90.72696577 63.80516696 -64.84356729 54.90661205 -41.296875 50.80078125 C-40.11303223 50.59356445 -38.92918945 50.38634766 -37.70947266 50.17285156 C-35.38965413 49.77784092 -33.06642266 49.4021789 -30.73974609 49.04980469 C-20.59759796 47.36921752 -10.66634277 44.12383314 -4.0859375 35.80859375 C-1.37567666 31.29474207 -0.72440763 27.40675535 -0.5859375 22.16796875 C-0.55032715 21.00289795 -0.5147168 19.83782715 -0.47802734 18.63745117 C-0.42702881 16.43472534 -0.42702881 16.43472534 -0.375 14.1875 C-0.25125 9.505625 -0.1275 4.82375 0 0 Z M-7.2265625 95.98828125 C-8.24999756 96.19839844 -9.27343262 96.40851563 -10.32788086 96.625 C-11.95995483 96.9653125 -11.95995483 96.9653125 -13.625 97.3125 C-20.62699583 98.75885529 -27.60499548 100.14334907 -34.68164062 101.16943359 C-46.49280498 102.90020378 -55.47596148 106.33579053 -63 116 C-68.9488177 125.97388838 -70.57206114 135.61921459 -68.421875 147.08203125 C-65.39911666 156.68615888 -58.98626306 163.70902052 -50.25 168.5625 C-42.08263932 172.23521124 -32.88184532 173.26632873 -24.1796875 170.84375 C-14.30341885 167.02067826 -6.43867253 160.44616009 -1.81640625 150.84765625 C1.13250524 143.11568455 0.64304299 134.84576637 0.6875 126.6875 C0.72642184 123.46213421 0.7753335 120.2369467 0.82421875 117.01171875 C0.83395721 116.23899628 0.84369568 115.4662738 0.85372925 114.6701355 C0.95284016 108.08342998 1.37678215 101.55953268 2 95 C-1.37535948 95 -3.96235791 95.30677255 -7.2265625 95.98828125 Z " fill="#70A9EE" transform="translate(173,33)"/>
<path d="M0 0 C33.48648649 0 33.48648649 0 45.75 10.3125 C51.67128486 17.3851458 53.16653394 24.1910446 53.0625 33.25 C53.05798828 33.99507812 53.05347656 34.74015625 53.04882812 35.5078125 C53.03709246 37.3385764 53.0191585 39.16929873 53 41 C52.02160156 41.37511719 51.04320312 41.75023437 50.03515625 42.13671875 C30.0619476 49.88664013 12.67448073 60.86206485 2.05859375 80.19921875 C1.70925781 80.79347656 1.35992187 81.38773437 1 82 C0.67 82 0.34 82 0 82 C0 54.94 0 27.88 0 0 Z " fill="#005CC1" transform="translate(36,45)"/>
</svg>
